PathFileType	4	(X/Y/Z)	C:/Users/beibeiliu/ov580/test_trc/capture2\sequence.22_training_dense_right.trc
DataRate	CameraRate	NumFrames	NumMarkers	Units	OrigDataRate	OrigDataStartFrame	OrigNumFrames
120	120	25	19	mm	120	333	380
Frame#	Time	ThumbCMC			ThumbMCP			ThumbIP			ThumbTip			IndexMCP			IndexPIP			IndexTip			MiddleMCP			MiddlePIP			MiddleTip			RingMCP			RingPIP			RingTip			PinkyMCP			PinkyPIP			PinkyTip			BackHand1			BackHand2			BackHand3	
		X0	Y0	Z0	X1	Y1	Z1	X2	Y2	Z2	X3	Y3	Z3	X4	Y4	Z4	X5	Y5	Z5	X6	Y6	Z6	X7	Y7	Z7	X8	Y8	Z8	X9	Y9	Z9	X10	Y10	Z10	X11	Y11	Z11	X12	Y12	Z12	X13	Y13	Z13	X14	Y14	Z14	X15	Y15	Z15	X16	Y16	Z16	X17	Y17	Z17	X18	Y18	Z18	
332	2.76667	171.503	54.0919	70.03	184.462	79.2589	59.9311	186.937	99.2688	37.5907	183.53	117.22	20.6253	162.196	101.875	16.633	156.584	122.915	38.1248	154.784	99.5041	61.4346	140.366	104.646	20.6916	141.976	121.469	48.3043	145.744	87.6041	67.6468	120.08	104.883	27.6921	125.896	115.982	54.7352	137.714	86.7847	70.7124	98.1526	95.2639	22.9248	100.76	119.143	20.5229	98.9538	146.088	21.9049	115.166	47.7466	34.3517	118.151	27.6786	62.2249	148.099	36.1073	49.4127	
333	2.775	174.718	54.9549	72.3089	184.219	80.5555	59.3723	189.081	100.582	43.6847	187.024	117.141	28.8208	162.2	103.36	21.5892	164.241	125.182	41.7194	161.744	98.7408	66.6203	138.788	107.83	25.327	145.077	122.972	54.8162	146.916	90.7359	71.3587	123.199	110.663	32.8577	130.144	118.763	61.6574	136.394	90.9933	75.3927	103.89	98.68	27.4343	102.116	119.324	27.2774	102.641	152.109	28.7059	115.633	51.3681	38.3748	119.307	30.1384	62.4114	148.856	40.0181	45.7345	
334	2.78333	173.174	57.0407	71.1529	184.95	81.7711	62.1022	188.52	103.244	44.1039	183.129	121.009	29.9637	163.353	104.985	24.1267	163.333	126.603	49.0445	161.942	98.2871	69.9849	142.554	111.881	30.4243	148.671	126.172	55.5612	150.822	90.6334	75.8479	123.258	109.759	36.465	129.387	122.179	65.8485	140.165	93.6374	78.8372	101.228	100.887	33.8264	103.31	128.164	33.3422	104.504	151.343	35.1866	115.879	55.3409	42.8714	121.137	31.8096	66.3827	149.115	39.8456	50.2767	
335	2.79167	178.206	57.9851	71.4601	186.444	83.3389	62.5728	191.16	104.982	45.1202	188.284	121.001	35.0235	164.286	111.589	28.6991	162.123	128.678	51.4487	165.403	100.271	72.6443	138.818	111.911	34.0065	146.826	126.287	62.4488	149.426	91.6909	78.9467	127.192	113.67	41.0305	135.264	123.371	69.2366	139.081	90.3388	84.0943	104.199	102.448	37.9257	103.571	128.782	38.8633	106.132	152.999	36.9627	118.347	54.1946	45.7295	119.769	32.9401	67.4526	151.578	42.8204	53.1854	
336	2.8	172.98	59.3807	73.4831	190.698	83.4717	66.6564	187.578	106.122	49.0196	187.524	123.947	37.3635	160.84	109.35	30.6658	167.499	130.325	53.9545	161.561	101.329	74.9383	141.994	113.805	36.0379	148.868	129.137	62.964	150.263	91.7612	80.621	127.196	115.813	43.5223	132.715	126.063	71.7115	140.009	95.9573	85.981	104.817	107.469	40.1217	105.597	133.285	41.3393	110.014	155.861	41.9342	116.701	59.7414	45.8216	118.052	38.5533	66.5524	148.743	44.5378	53.6027	
337	2.80833	177.679	59.0046	77.107	189.727	86.5043	65.8625	190.654	107.275	51.3462	189.428	127.861	37.3933	165.982	115.121	32.6262	164.444	131.651	58.0974	164.595	106.313	77.2372	140.776	119.323	39.5148	151.126	130.506	65.7996	151.098	99.0245	83.3612	123.039	117.051	46.2887	131.79	127.151	74.1401	141.358	95.1863	87.9296	104.611	107.579	42.0217	107.679	135.219	42.2258	108.547	160.876	42.6018	115.053	58.534	49.0272	121.394	39.1409	70.6542	149.862	48.9908	54.8416	
338	2.81667	174.304	60.0443	81.3061	190.255	87.8416	67.7962	192.014	110.615	52.5224	189.52	128.13	39.0607	161.318	112.212	33.9463	168.451	132.418	59.1568	162.507	104.698	77.798	141.458	120.804	40.0222	148.452	130.88	69.6142	154.972	99.402	83.0792	123.698	119.405	46.27	134.664	127.387	74.3787	139.932	97.8174	89.0066	104.765	110.51	42.8527	105.311	136.513	43.886	110.069	160.502	43.1931	119.326	59.1977	49.7818	121.767	40.8645	70.1753	150.44	47.3218	56.2159	
339	2.825	176.991	63.282	79.191	187.966	86.5342	74.5984	189.875	109.098	54.2542	190.708	130.004	38.3584	163.278	116.073	34.5878	168.328	134.063	54.9894	165.982	107.647	78.66	142.376	120.474	38.1422	146.908	133.602	64.5258	154.535	97.9619	83.5177	124.573	119.087	44.6042	132.091	129.586	72.4226	143.118	97.5028	86.8843	104.978	108.053	43.3108	105.149	131.498	42.1354	107.717	157.732	44.0867	118.501	60.0213	49.6733	122.884	37.2635	73.7727	153.371	46.9264	57.2882	
340	2.83333	175.139	63.8296	81.0542	191.962	89.8443	71.864	196.928	110.141	55.3906	192.898	129.005	41.2127	166.262	112.07	32.2433	163.716	134.329	57.4242	163.41	110.169	77.4467	142.718	120.895	37.2176	149.309	133.281	65.2257	152.294	101.939	83.5576	124.809	117.513	41.4885	133.024	130.395	70.2029	141.856	104.408	86.1845	106.446	108.321	40.6269	105.144	130.755	39.9495	106.65	159.338	40.5419	120.942	60.5641	49.3607	120.004	42.1693	69.6032	152.79	49.2577	54.5579	
341	2.84167	180.634	63.2391	79.5126	188.433	88.8754	69.0495	196.013	109.525	53.4573	192.455	128.857	37.1391	165.832	115.084	30.9528	165.662	133.828	56.3944	163.779	109.538	76.3465	147.83	118.043	34.7735	150.867	133.203	61.2095	151.357	99.5474	80.8893	125.187	115.399	40.2779	132.325	129.072	68.0214	139.976	103.26	86.1195	105.177	110.637	37.1095	106.772	129.528	37.0226	109.591	155.171	36.6976	123.266	57.332	48.1293	126.098	37.3023	68.8087	152.544	49.5337	55.9287	
342	2.85	182.252	64.3737	76.7893	188.692	89.0492	68.3952	191.411	109.91	50.3462	191.869	127.635	33.9955	164.534	110.144	29.0507	164.183	133.431	49.7628	163.229	107.579	74.2117	147.404	117.786	31.5567	147.543	131.928	57.7625	153.824	102.892	79.8736	127.592	117.181	38.0287	131.826	128.29	64.1179	142.733	99.8081	82.5582	104.361	105.654	33.5045	108.658	129.682	32.3897	105.449	155.257	32.1947	121.869	57.5677	42.6659	125.306	37.4134	69.2502	153.356	45.4738	55.9137	
343	2.85833	180.48	64.4192	77.9169	188.736	90.205	66.467	193.701	109.974	48.7052	190.746	127.511	31.5451	167.783	111.788	24.7663	165.719	132.755	46.7506	162.503	106.192	71.352	145.337	115.428	27.9786	145.621	128.042	57.7209	153.932	98.2387	76.5472	128.083	110.994	34.105	131.595	125.651	58.9117	144.472	96.7889	79.0761	107.417	100.62	30.117	104.654	124.027	27.0797	103.459	152.216	23.3715	123.406	53.2972	44.6645	126.963	34.2097	69.7653	159.615	45.645	56.5279	
344	2.86667	183.33	67.0081	73.8931	191.841	93.9706	61.5978	190.444	110.123	45.9367	186.848	125.508	28.9689	163.651	110.922	21.1219	162.037	131.744	42.9243	162.756	109.198	67.6277	141.274	106.741	24.3432	142.708	126.476	52.1048	153.074	99.2007	73.2392	127.112	106.237	28.8824	130.045	121.977	53.5863	139.539	96.6052	75.0804	107.894	91.9659	25.0239	102.369	119.847	20.1737	99.1399	142.808	13.4375	127.061	52.7227	38.796	129.915	32.1509	67.8039	160.205	45.744	51.7694	
345	2.875	178.369	67.0346	74.9792	190.02	92.6801	62.562	192.722	112.267	42.5778	184.942	126.639	21.7258	167.71	104.804	18.443	156.227	129.053	39.6035	158.69	107.393	63.3747	144.359	104.419	18.5163	138.67	124.934	43.2365	149.522	96.9988	68.9892	122.504	103.264	23.8363	128.887	117.406	52.5972	138.702	95.0043	70.7554	104.384	87.9893	18.6441	101.539	111.591	13.5958	97.3128	133.488	6.11749	130.35	46.606	36.3119	131.546	30.2338	63.8369	165.974	46.5199	49.9517	
346	2.88333	178.233	69.4625	72.8488	185.7	93.6174	59.2616	187.8	111.838	34.9519	179.363	122.43	16.759	161.902	104.285	13.7269	151.297	125.635	33.0911	155.961	106.99	59.0322	140.557	103.504	14.6739	137.099	122.053	39.4002	147.722	97.5818	64.5263	122.943	97.6573	18.6012	124.495	112.867	48.0058	134.137	90.022	65.8779	109.626	79.896	14.7995	100.799	103.548	5.75395	96.4762	123.24	-2.10758	131.095	41.3235	35.2149	135.854	26.2502	64.4133	162.387	45.336	50.1933	
347	2.89167	180.685	72.349	72.642	185.522	96.6087	56.2056	184.09	111.444	31.6286	181.964	123.772	12.7559	160.253	99.5353	9.6317	152.613	126.788	28.4635	152.267	108.005	52.6952	140.666	99.6429	9.86008	135.294	118.169	36.0847	142.711	92.3809	59.3202	122.983	94.4013	14.6509	121.281	110.552	39.0821	134.718	84.7977	61.1749	108.165	72.636	9.04839	97.1831	96.018	-2.4308	91.2203	111.877	-12.3122	136.362	41.0665	34.6512	137.406	28.2593	59.3597	165.956	42.5474	49.7271	
348	2.9	178.399	72.9998	68.2901	185.153	97.4826	52.4431	182.666	109.518	26.7807	178.382	119.513	9.95332	160.913	100.081	4.03588	146.427	121.285	18.6307	150.815	104.812	49.2597	139.053	92.8103	5.36602	132.854	114.278	30.4467	141.446	90.5264	54.3698	125.175	91.2074	8.18908	118.593	105.302	36.4402	136.808	82.4768	55.065	110.691	68.492	1.33121	101.671	83.4811	-7.96746	92.2545	106.109	-23.2076	140.156	39.6858	29.9374	142.669	27.5126	59.8113	167.608	44.4926	47.5137	
349	2.90833	177.11	72.9646	68.9777	182.854	97.9681	48.7159	183.853	110.193	27.5054	182.739	120.307	5.20871	164.313	95.8728	1.63522	146.172	119.181	16.5843	148.106	99.568	43.6195	143.742	92.2224	0.913038	131.151	110.571	22.0851	142.13	87.8332	49.8315	126.596	84.0051	4.3508	120.545	102.493	26.3131	132.73	79.1513	50.2918	115.574	61.7359	-0.516333	105.678	76.6244	-14.8037	96.4121	93.8124	-31.8905	142.509	37.1533	28.4151	139.844	25.1341	58.212	171.094	45.2308	48.2686	
350	2.91667	177.242	75.7894	66.4112	180.499	96.7453	47.5227	183.189	108.362	24.4045	185.657	118.771	2.06772	169.838	94.2126	0.361009	152.88	118.245	8.34007	148.495	101.146	39.392	147.117	88.176	-2.33978	135.301	109.543	16.1725	140.403	86.4737	45.6683	131.712	80.1838	0.11215	120.316	99.7386	24.9457	137.39	79.9683	44.778	119.86	57.5623	-6.8387	108.124	68.9788	-21.4836	103.193	85.5197	-42.4177	143.815	32.6877	28.6576	141.195	22.4603	60.566	170.75	41.6432	48.7611	
351	2.925	175.536	77.0885	68.2541	179.453	97.4238	49.3442	188.26	110.326	25.5503	185.223	113.86	-0.362783	173.433	89.2942	-0.825728	152.895	114.356	7.12681	150.804	102.615	34.6263	153.433	82.2646	-4.46299	139.249	108.038	10.0331	144.092	89.5626	42.6297	136.909	77.0238	-3.75952	124.756	97.8844	17.8206	133.018	78.9173	41.5852	127.476	51.5387	-6.11967	119.6	64.6084	-27.9632	112.39	78.0093	-50.9339	150.009	35.1444	28.7624	146.318	23.4225	61.3573	173.761	44.1091	48.5208	
352	2.93333	178.641	80.6414	69.1348	182.456	100.836	51.5934	191.274	110.012	24.5049	191.699	115.101	6.16611	183.283	90.335	1.36529	161.35	113.385	0.747436	153.087	102.792	32.0776	160.264	85.5106	-5.34733	145.111	107.234	8.60977	150.386	89.9937	42.7411	144.801	73.6731	-5.30624	130.558	96.4437	9.18353	141.937	80.0285	40.0154	136.152	47.4909	-6.9614	133.569	58.5202	-30.0351	130.306	71.0239	-53.4594	152.1	31.2333	32.4881	146.353	25.9442	63.2938	179.387	48.2305	53.299	
353	2.94167	176.272	84.6918	76.0161	184.969	102.61	50.3261	193.58	111.05	27.2149	199.586	117.262	5.65104	188.542	88.5384	3.0982	170.475	114.885	1.16957	157.559	101.695	31.0505	169.596	81.8133	-2.91491	147.567	103.577	3.48775	148.862	87.4746	39.6833	152.744	73.7564	-7.25517	137.709	95.7834	10.7973	142.688	81.3139	36.6771	147.065	45.6638	-7.55993	148.235	54.8907	-27.1196	147.669	66.5879	-52.7292	159.642	33.2924	37.5323	154.745	29.0991	62.5273	178.064	48.4448	61.9408	
354	2.95	175.52	89.5159	78.7219	182.887	107.481	57.5509	194.823	114.599	34.1594	204.307	120.992	13.4435	197.885	93.2925	7.37533	175.053	113.169	3.06737	161.176	106.09	30.2686	178.988	85.4005	-1.45029	155.184	103.054	3.67369	153.853	89.3595	41.6903	164.867	71.5276	-3.08204	141.781	92.5555	6.93753	146.539	79.3558	38.5148	161.798	44.8219	-7.27384	161.349	50.442	-27.3962	163.969	62.0467	-50.9413	164.829	34.3861	39.8451	157.418	33.2968	67.1745	180.043	51.4611	67.238	
355	2.95833	170.708	92.4357	83.0025	184.097	111.37	58.071	195.799	119.369	41.5253	207.194	122.106	17.0048	201.992	92.7451	13.6651	180.728	117.171	6.41889	164.214	105.743	33.836	186.707	81.8571	4.97614	161.367	102.705	3.86143	154.758	93.1445	40.6333	172.57	74.2121	-1.60732	150.807	93.7722	8.04504	150.156	79.5288	39.8018	175.59	45.3669	-2.33424	176.387	49.7797	-21.7488	182.631	58.7531	-45.8249	174.566	37.0137	42.7856	159.466	33.1456	70.1723	183.488	57.0539	71.6443	
356	2.96667	167.985	96.487	83.4774	179.758	114.329	61.3348	193.91	122.681	43.8186	207.623	129.618	25.9854	207.39	99.4263	20.4006	187.198	115.129	7.43547	165.076	109.087	31.9419	192.932	88.5531	7.51057	165.561	104.175	8.22835	156.607	91.9336	41.7138	182.464	75.5925	3.68233	155.107	90.2645	7.82676	149.074	79.7224	36.7973	183.697	44.413	3.88721	191.77	52.7091	-16.7483	200.822	63.4296	-42.9311	179.938	38.1927	50.4743	162.384	32.3934	72.9916	185.449	64.8981	77.3802	
